# xmcd
#
# Track frame offsets: 
#        150
#        10738
#        25401
#        38793
#        51027
#        63629
#        73835
#        87907
#        100382
#        113880
#        127440
#        140211
#        155420
#        169654
#        185002
#        196787
#
# Disc length: 2817 seconds
#
# Revision: 3
# Processed by: cddbd v1.5.2PL0 Copyright (c) Steve Scherf et al.
# Submitted via: ExactAudioCopyFreeDBPlugin 1.0
#
DISCID=ec0aff10
DTITLE=John Lee Hooker - Past Perfect, Disc 06 - Ground Hog Blues
DYEAR=2001
DGENRE=Blues
TTITLE0=Walkin' this Highway
TTITLE1=Four Women in My Life
TTITLE2=I Need Lovin'
TTITLE3=Find Me a Woman
TTITLE4=Mad Man Blues
TTITLE5=Hey Boogie
TTITLE6=Louise
TTITLE7=High Priced Woman
TTITLE8=Union Station Blues
TTITLE9=Ground Hog Blues
TTITLE10=Leave My Wife Alone
TTITLE11=Ramblin' by Myself
TTITLE12=Dreamin' Blues
TTITLE13=Just Me and My Telephone
TTITLE14=Walkin' the Boogie
TTITLE15=Sugar Mama
EXTD=
EXTT0=
EXTT1=
EXTT2=
EXTT3=
EXTT4=
EXTT5=
EXTT6=
EXTT7=
EXTT8=
EXTT9=
EXTT10=
EXTT11=
EXTT12=
EXTT13=
EXTT14=
EXTT15=
PLAYORDER=
